<svg width="1588" height="269" viewBox="0 0 1588 269" fill="none" xmlns="http://www.w3.org/2000/svg">
<path d="M115.464 0.999992H59.5336C26.7236 0.999992 0.0335935 27.86 0.0335935 60.5C0.0335935 93.31 26.7236 120 59.5336 120H115.464C148.274 120 174.964 93.31 174.964 60.5C174.964 27.86 148.274 0.999992 115.464 0.999992ZM59.5336 113.03C30.4636 113.03 7.00359 89.57 7.00359 60.5C7.00359 31.6 30.4636 8.13999 59.5336 8.13999C88.4336 8.13999 111.894 31.6 111.894 60.5C111.894 89.57 88.4336 113.03 59.5336 113.03ZM343.129 115.07L287.029 3.04C286.519 1.84999 285.329 0.999992 283.969 0.999992H227.869C226.679 0.999992 225.659 1.67999 224.979 2.69999C224.979 2.87 224.979 2.87 224.979 2.87C224.809 2.87 224.809 3.04 224.809 3.04L168.879 115.07C168.199 116.09 168.369 117.45 169.049 118.47C169.559 119.49 170.749 120 171.939 120H339.899C341.089 120 342.279 119.49 342.959 118.47C343.639 117.45 343.639 116.09 343.129 115.07ZM177.549 113.03L227.869 12.39L278.359 113.03H177.549ZM508.405 113.03H402.155L426.635 64.07H480.525C482.395 64.07 483.925 62.54 483.925 60.5C483.925 58.63 482.395 57.1 480.525 57.1H430.205L454.685 8.13999H480.525C482.395 8.13999 483.925 6.43999 483.925 4.57C483.925 2.69999 482.395 0.999992 480.525 0.999992H396.375C395.185 0.999992 393.995 1.84999 393.315 3.04L337.385 115.07C336.705 116.09 336.875 117.45 337.555 118.47C338.065 119.49 339.255 120 340.445 120H508.405C510.445 120 511.975 118.47 511.975 116.6C511.975 114.73 510.445 113.03 508.405 113.03ZM652.775 60.5L679.975 6.1C680.485 5.07999 680.485 3.72 679.805 2.69999C679.125 1.67999 677.935 1.16999 676.745 1.16999H620.815H620.645C620.135 1.16999 619.625 1.34 619.285 1.51C619.115 1.67999 618.945 1.67999 618.775 1.67999C618.435 2.02 617.925 2.52999 617.755 3.04L590.725 57.1H568.285V4.57C568.285 2.69999 566.755 1.16999 564.885 1.16999C562.845 1.16999 561.315 2.69999 561.315 4.57V57.1H539.045L512.015 3.04C510.995 1.34 508.955 0.659996 507.255 1.51C505.555 2.35999 504.875 4.4 505.725 6.1L532.925 60.67L505.725 115.07C504.875 116.77 505.555 118.81 507.255 119.66C508.955 120.51 510.995 119.83 512.015 118.13L539.045 64.07H561.315V116.6C561.315 118.47 562.845 120 564.885 120C566.755 120 568.285 118.47 568.285 116.6V64.07H590.725L617.755 118.13C617.925 118.81 618.435 119.15 618.945 119.49C619.455 119.83 620.135 120 620.645 120L620.815 120.17H676.745C678.105 120.17 679.125 119.49 679.805 118.47C680.485 117.45 680.485 116.09 679.975 115.07L652.775 60.5ZM848.481 115.07L792.381 3.04C791.871 1.84999 790.681 0.999992 789.321 0.999992H733.221C732.031 0.999992 731.011 1.67999 730.331 2.69999C730.331 2.87 730.331 2.87 730.331 2.87C730.161 2.87 730.161 3.04 730.161 3.04L674.231 115.07C673.551 116.09 673.721 117.45 674.401 118.47C674.911 119.49 676.101 120 677.291 120H845.251C846.441 120 847.631 119.49 848.311 118.47C848.991 117.45 848.991 116.09 848.481 115.07ZM682.901 113.03L733.221 12.39L783.711 113.03H682.901ZM1016.99 115.07L960.887 3.04C960.377 1.84999 959.187 0.999992 957.827 0.999992H901.897C900.537 0.999992 899.517 1.67999 898.837 2.69999C898.837 2.87 898.837 2.87 898.837 2.87C898.837 3.04 898.667 3.04 898.667 3.04L870.787 58.97C870.617 58.97 870.617 58.97 870.617 59.14L842.737 115.07C841.887 116.77 842.567 118.81 844.267 119.66C845.967 120.51 848.007 119.83 849.027 118.13L876.057 64.07H927.737L954.767 118.13C954.937 118.81 955.447 119.15 955.957 119.49C956.467 119.83 957.147 120 957.657 120H957.827H1013.76C1015.12 120 1016.14 119.49 1016.82 118.47C1017.5 117.45 1017.5 116.09 1016.99 115.07ZM879.457 57.1L901.897 12.39L924.167 57.1H879.457ZM1250.24 115.07L1194.14 3.04C1193.63 1.84999 1192.44 0.999992 1191.08 0.999992H1134.98C1133.79 0.999992 1132.77 1.67999 1132.09 2.69999C1132.09 2.87 1132.09 2.87 1132.09 2.87C1131.92 2.87 1131.92 3.04 1131.92 3.04L1075.99 115.07C1075.31 116.09 1075.48 117.45 1076.16 118.47C1076.67 119.49 1077.86 120 1079.05 120H1247.01C1248.2 120 1249.39 119.49 1250.07 118.47C1250.75 117.45 1250.75 116.09 1250.24 115.07ZM1084.66 113.03L1134.98 12.39L1185.47 113.03H1084.66ZM1418.74 115.07L1362.64 3.04C1362.13 1.84999 1360.94 0.999992 1359.58 0.999992H1303.65C1302.29 0.999992 1301.27 1.67999 1300.59 2.69999C1300.59 2.87 1300.59 2.87 1300.59 2.87L1300.42 3.04L1244.49 115.07C1243.64 116.77 1244.32 118.81 1246.02 119.66C1247.72 120.51 1249.76 119.83 1250.78 118.13L1303.65 12.39L1356.52 118.13C1356.69 118.81 1357.2 119.15 1357.71 119.49C1358.22 119.83 1358.73 120 1359.41 120H1359.58H1415.51C1416.7 120 1417.89 119.49 1418.57 118.47C1419.25 117.45 1419.25 116.09 1418.74 115.07ZM1584.02 0.999992H1444.11C1426.77 0.999992 1412.66 15.28 1412.66 32.62C1412.66 48.09 1423.88 61.01 1438.67 63.56L1413 115.07C1412.15 116.77 1412.83 118.81 1414.53 119.66C1415.04 120 1415.55 120.17 1416.06 120.17C1417.42 120.17 1418.61 119.32 1419.29 118.13L1446.32 64.07H1524.52V116.6C1524.52 118.47 1526.22 120.17 1528.09 120.17H1584.02C1586.06 120.17 1587.59 118.47 1587.59 116.6V4.57C1587.59 2.69999 1586.06 0.999992 1584.02 0.999992ZM1524.52 57.1C1524.52 57.1 1444.11 57.1 1443.94 57.1C1430.51 57.1 1419.63 46.05 1419.63 32.62C1419.63 19.02 1430.51 8.13999 1444.11 8.13999H1524.52V57.1ZM355.109 208.5L382.309 154.1C382.819 153.08 382.819 151.72 382.139 150.7C381.459 149.68 380.269 149.17 379.079 149.17H323.149H322.979C322.469 149.17 321.959 149.34 321.619 149.51C321.449 149.68 321.279 149.68 321.109 149.68C320.769 150.02 320.259 150.53 320.089 151.04L292.889 205.1H214.689V152.57C214.689 150.7 212.989 149.17 211.119 149.17C209.249 149.17 207.719 150.7 207.719 152.57V264.6C207.719 266.47 209.249 268.17 211.119 268.17C212.989 268.17 214.689 266.47 214.689 264.6V212.07H292.889L320.089 266.13C320.259 266.81 320.769 267.32 321.279 267.49C321.789 267.83 322.299 268 322.979 268L323.149 268.17H379.079C380.269 268.17 381.459 267.49 382.139 266.47C382.819 265.45 382.819 264.09 382.309 263.07L355.109 208.5ZM550.815 263.07L494.715 151.04C494.205 149.85 493.015 149 491.655 149H435.725C434.365 149 433.345 149.68 432.665 150.7C432.665 150.87 432.665 150.87 432.665 150.87C432.665 151.04 432.495 151.04 432.495 151.04L404.615 206.97C404.445 206.97 404.445 206.97 404.445 207.14L376.565 263.07C375.715 264.77 376.395 266.81 378.095 267.66C379.795 268.51 381.835 267.83 382.855 266.13L409.885 212.07H461.565L488.595 266.13C488.765 266.81 489.275 267.15 489.785 267.49C490.295 267.83 490.975 268 491.485 268H491.655H547.585C548.945 268 549.965 267.49 550.645 266.47C551.325 265.45 551.325 264.09 550.815 263.07ZM413.285 205.1L435.725 160.39L457.995 205.1H413.285ZM692.121 208.5L719.321 154.1C719.831 153.08 719.831 151.72 719.151 150.7C718.471 149.68 717.281 149.17 716.091 149.17H660.161H659.991C659.481 149.17 658.971 149.34 658.631 149.51C658.461 149.68 658.291 149.68 658.121 149.68C657.781 150.02 657.271 150.53 657.101 151.04L630.071 205.1H607.631V152.57C607.631 150.7 606.101 149.17 604.231 149.17C602.191 149.17 600.661 150.7 600.661 152.57V205.1H578.391L551.361 151.04C550.341 149.34 548.301 148.66 546.601 149.51C544.901 150.36 544.221 152.4 545.071 154.1L572.271 208.67L545.071 263.07C544.221 264.77 544.901 266.81 546.601 267.66C548.301 268.51 550.341 267.83 551.361 266.13L578.391 212.07H600.661V264.6C600.661 266.47 602.191 268 604.231 268C606.101 268 607.631 266.47 607.631 264.6V212.07H630.071L657.101 266.13C657.271 266.81 657.781 267.15 658.291 267.49C658.801 267.83 659.481 268 659.991 268L660.161 268.17H716.091C717.451 268.17 718.471 267.49 719.151 266.47C719.831 265.45 719.831 264.09 719.321 263.07L692.121 208.5ZM887.827 263.07L831.727 151.04C831.217 149.85 830.027 149 828.667 149H772.567C771.377 149 770.357 149.68 769.677 150.7C769.677 150.87 769.677 150.87 769.677 150.87C769.507 150.87 769.507 151.04 769.507 151.04L713.577 263.07C712.897 264.09 713.067 265.45 713.747 266.47C714.257 267.49 715.447 268 716.637 268H884.597C885.787 268 886.977 267.49 887.657 266.47C888.337 265.45 888.337 264.09 887.827 263.07ZM722.247 261.03L772.567 160.39L823.057 261.03H722.247ZM997.173 149H941.243C908.433 149 881.743 175.86 881.743 208.5C881.743 241.31 908.433 268 941.243 268H997.173C1029.98 268 1056.67 241.31 1056.67 208.5C1056.67 175.86 1029.98 149 997.173 149ZM941.243 261.03C912.173 261.03 888.713 237.57 888.713 208.5C888.713 179.6 912.173 156.14 941.243 156.14C970.143 156.14 993.603 179.6 993.603 208.5C993.603 237.57 970.143 261.03 941.243 261.03ZM1221.61 149H1053.65C1052.46 149 1051.27 149.68 1050.76 150.7C1050.08 151.72 1049.91 153.08 1050.59 154.1L1106.52 266.13C1107.2 267.32 1108.39 268 1109.58 268H1165.68C1166.19 268 1166.7 268 1167.21 267.66C1167.38 267.66 1167.38 267.49 1167.55 267.49C1167.89 267.15 1168.23 266.98 1168.4 266.64C1168.57 266.47 1168.57 266.47 1168.57 266.47C1168.74 266.3 1168.74 266.3 1168.74 266.13C1168.91 265.79 1169.08 265.45 1169.08 265.11C1169.08 264.94 1169.08 264.77 1169.08 264.6C1169.08 264.09 1169.08 263.58 1168.74 263.07L1115.36 156.14H1221.61C1223.65 156.14 1225.18 154.44 1225.18 152.57C1225.18 150.7 1223.65 149 1221.61 149ZM1320.41 149H1264.48C1231.67 149 1204.97 175.86 1204.97 208.5C1204.97 241.31 1231.67 268 1264.48 268H1320.41C1353.22 268 1379.91 241.31 1379.91 208.5C1379.91 175.86 1353.22 149 1320.41 149ZM1264.48 261.03C1235.41 261.03 1211.95 237.57 1211.95 208.5C1211.95 179.6 1235.41 156.14 1264.48 156.14C1293.38 156.14 1316.84 179.6 1316.84 208.5C1316.84 237.57 1293.38 261.03 1264.48 261.03Z" fill="#1F252D"/>
</svg>
