<svg width="126" height="27" viewBox="0 0 126 27" fill="none" xmlns="http://www.w3.org/2000/svg">
<circle cx="13.5" cy="13.5" r="13.5" fill="white"/>
<path fill-rule="evenodd" clip-rule="evenodd" d="M5.76406 7.57278C4.24822 7.89194 4.09827 8.83893 5.30037 10.5008C5.43769 10.6907 5.58215 10.8739 5.62139 10.9079C5.73075 11.0027 6.21648 11.3601 6.69144 11.6954C7.11967 11.9976 8.57822 12.7503 8.74372 12.7545C8.79202 12.7557 8.99205 12.8358 9.18822 12.9324C9.3844 13.029 9.58821 13.1083 9.64114 13.1087C9.69407 13.109 9.83853 13.1537 9.96216 13.2079C10.0858 13.2621 10.4052 13.3749 10.672 13.4585C11.9455 13.8574 11.7211 14.6163 10.4147 14.3287C10.2502 14.2924 9.82669 14.2095 9.47357 14.1442C9.12045 14.0789 8.76734 13.997 8.68887 13.9621C7.80294 13.5678 6.01374 13.1198 6.01374 13.2923C6.01374 13.5497 6.92535 14.899 7.34281 15.2594C7.83204 15.6818 9.13108 16.4651 9.34238 16.4651C9.39282 16.4651 9.57137 16.5258 9.73916 16.5999C10.2434 16.8226 10.7424 16.9656 11.0132 16.9653C11.9051 16.9641 12.3763 17.251 12.1215 17.6403C11.9779 17.8597 10.3597 17.9139 9.68273 17.7221C8.83725 17.4824 8.38711 17.5166 8.5708 17.8063C8.64342 17.9208 10.2306 18.9624 10.334 18.9634C10.3757 18.9638 10.5523 19.0345 10.7264 19.1205C11.4118 19.4591 14.0065 19.6202 15.1805 19.397C16.546 19.1375 16.6304 19.1187 16.7762 19.0406C16.8546 18.9986 17.0006 18.9641 17.1004 18.9641C18.0355 18.9641 19.8942 17.9406 20.9793 16.8282C21.9132 15.8708 21.9487 15.7109 21.3526 15.1442C21.2286 15.0264 21.0741 14.8176 21.0092 14.6801C20.8536 14.3505 18.8927 12.3896 18.2123 11.8834C17.5324 11.3774 16.3454 10.5743 16.0094 10.3929C15.8674 10.3161 15.5586 10.1411 15.3232 10.0039C15.0878 9.86659 14.7186 9.67196 14.5028 9.57135C14.287 9.47068 14.0463 9.35779 13.9678 9.32052C13.7106 9.19821 12.6222 8.81779 12.1487 8.68477C11.8937 8.61309 11.6048 8.52191 11.5067 8.48214C11.4086 8.44237 11.1518 8.36197 10.936 8.30342C9.91422 8.02639 9.67203 7.95892 9.46851 7.89473C9.34802 7.85674 9.16133 7.82568 9.05361 7.82568C8.94596 7.82568 8.78774 7.7872 8.70199 7.74022C8.30679 7.5233 6.49048 7.41984 5.76406 7.57278Z" fill="#0C1218"/>
<circle cx="46.5" cy="13.5" r="13.5" fill="#8229A4"/>
<path fill-rule="evenodd" clip-rule="evenodd" d="M38.7641 7.57278C37.2482 7.89194 37.0983 8.83893 38.3004 10.5008C38.4377 10.6907 38.5822 10.8739 38.6214 10.9079C38.7307 11.0027 39.2165 11.3601 39.6914 11.6954C40.1197 11.9976 41.5782 12.7503 41.7437 12.7545C41.792 12.7557 41.992 12.8358 42.1882 12.9324C42.3844 13.029 42.5882 13.1083 42.6411 13.1087C42.6941 13.109 42.8385 13.1537 42.9622 13.2079C43.0858 13.2621 43.4052 13.3749 43.672 13.4585C44.9455 13.8574 44.7211 14.6163 43.4147 14.3287C43.2502 14.2924 42.8267 14.2095 42.4736 14.1442C42.1205 14.0789 41.7673 13.997 41.6889 13.9621C40.8029 13.5678 39.0137 13.1198 39.0137 13.2923C39.0137 13.5497 39.9254 14.899 40.3428 15.2594C40.832 15.6818 42.1311 16.4651 42.3424 16.4651C42.3928 16.4651 42.5714 16.5258 42.7392 16.5999C43.2434 16.8226 43.7424 16.9656 44.0132 16.9653C44.9051 16.9641 45.3763 17.251 45.1215 17.6403C44.9779 17.8597 43.3597 17.9139 42.6827 17.7221C41.8372 17.4824 41.3871 17.5166 41.5708 17.8063C41.6434 17.9208 43.2306 18.9624 43.334 18.9634C43.3757 18.9638 43.5523 19.0345 43.7264 19.1205C44.4118 19.4591 47.0065 19.6202 48.1805 19.397C49.546 19.1375 49.6304 19.1187 49.7762 19.0406C49.8546 18.9986 50.0006 18.9641 50.1004 18.9641C51.0355 18.9641 52.8942 17.9406 53.9793 16.8282C54.9132 15.8708 54.9487 15.7109 54.3526 15.1442C54.2286 15.0264 54.0741 14.8176 54.0092 14.6801C53.8536 14.3505 51.8927 12.3896 51.2123 11.8834C50.5324 11.3774 49.3454 10.5743 49.0094 10.3929C48.8674 10.3161 48.5586 10.1411 48.3232 10.0039C48.0878 9.86659 47.7186 9.67196 47.5028 9.57135C47.287 9.47068 47.0463 9.35779 46.9678 9.32052C46.7106 9.19821 45.6222 8.81779 45.1487 8.68477C44.8937 8.61309 44.6048 8.52191 44.5067 8.48214C44.4086 8.44237 44.1518 8.36197 43.936 8.30342C42.9142 8.02639 42.672 7.95892 42.4685 7.89473C42.348 7.85674 42.1613 7.82568 42.0536 7.82568C41.946 7.82568 41.7877 7.7872 41.702 7.74022C41.3068 7.5233 39.4905 7.41984 38.7641 7.57278Z" fill="#0C1218"/>
<circle cx="79.5" cy="13.5" r="13.5" fill="#6D9C5C"/>
<path fill-rule="evenodd" clip-rule="evenodd" d="M71.7641 7.57278C70.2482 7.89194 70.0983 8.83893 71.3004 10.5008C71.4377 10.6907 71.5822 10.8739 71.6214 10.9079C71.7307 11.0027 72.2165 11.3601 72.6914 11.6954C73.1197 11.9976 74.5782 12.7503 74.7437 12.7545C74.792 12.7557 74.992 12.8358 75.1882 12.9324C75.3844 13.029 75.5882 13.1083 75.6411 13.1087C75.6941 13.109 75.8385 13.1537 75.9622 13.2079C76.0858 13.2621 76.4052 13.3749 76.672 13.4585C77.9455 13.8574 77.7211 14.6163 76.4147 14.3287C76.2502 14.2924 75.8267 14.2095 75.4736 14.1442C75.1205 14.0789 74.7673 13.997 74.6889 13.9621C73.8029 13.5678 72.0137 13.1198 72.0137 13.2923C72.0137 13.5497 72.9254 14.899 73.3428 15.2594C73.832 15.6818 75.1311 16.4651 75.3424 16.4651C75.3928 16.4651 75.5714 16.5258 75.7392 16.5999C76.2434 16.8226 76.7424 16.9656 77.0132 16.9653C77.9051 16.9641 78.3763 17.251 78.1215 17.6403C77.9779 17.8597 76.3597 17.9139 75.6827 17.7221C74.8372 17.4824 74.3871 17.5166 74.5708 17.8063C74.6434 17.9208 76.2306 18.9624 76.334 18.9634C76.3757 18.9638 76.5523 19.0345 76.7264 19.1205C77.4118 19.4591 80.0065 19.6202 81.1805 19.397C82.546 19.1375 82.6304 19.1187 82.7762 19.0406C82.8546 18.9986 83.0006 18.9641 83.1004 18.9641C84.0355 18.9641 85.8942 17.9406 86.9793 16.8282C87.9132 15.8708 87.9487 15.7109 87.3526 15.1442C87.2286 15.0264 87.0741 14.8176 87.0092 14.6801C86.8536 14.3505 84.8927 12.3896 84.2123 11.8834C83.5324 11.3774 82.3454 10.5743 82.0094 10.3929C81.8674 10.3161 81.5586 10.1411 81.3232 10.0039C81.0878 9.86659 80.7186 9.67196 80.5028 9.57135C80.287 9.47068 80.0463 9.35779 79.9678 9.32052C79.7106 9.19821 78.6222 8.81779 78.1487 8.68477C77.8937 8.61309 77.6048 8.52191 77.5067 8.48214C77.4086 8.44237 77.1518 8.36197 76.936 8.30342C75.9142 8.02639 75.672 7.95892 75.4685 7.89473C75.348 7.85674 75.1613 7.82568 75.0536 7.82568C74.946 7.82568 74.7877 7.7872 74.702 7.74022C74.3068 7.5233 72.4905 7.41984 71.7641 7.57278Z" fill="#0C1218"/>
<circle cx="112.5" cy="13.5" r="13.5" fill="#D1C12B"/>
<path fill-rule="evenodd" clip-rule="evenodd" d="M104.764 7.57278C103.248 7.89194 103.098 8.83893 104.3 10.5008C104.438 10.6907 104.582 10.8739 104.621 10.9079C104.731 11.0027 105.216 11.3601 105.691 11.6954C106.12 11.9976 107.578 12.7503 107.744 12.7545C107.792 12.7557 107.992 12.8358 108.188 12.9324C108.384 13.029 108.588 13.1083 108.641 13.1087C108.694 13.109 108.839 13.1537 108.962 13.2079C109.086 13.2621 109.405 13.3749 109.672 13.4585C110.945 13.8574 110.721 14.6163 109.415 14.3287C109.25 14.2924 108.827 14.2095 108.474 14.1442C108.12 14.0789 107.767 13.997 107.689 13.9621C106.803 13.5678 105.014 13.1198 105.014 13.2923C105.014 13.5497 105.925 14.899 106.343 15.2594C106.832 15.6818 108.131 16.4651 108.342 16.4651C108.393 16.4651 108.571 16.5258 108.739 16.5999C109.243 16.8226 109.742 16.9656 110.013 16.9653C110.905 16.9641 111.376 17.251 111.122 17.6403C110.978 17.8597 109.36 17.9139 108.683 17.7221C107.837 17.4824 107.387 17.5166 107.571 17.8063C107.643 17.9208 109.231 18.9624 109.334 18.9634C109.376 18.9638 109.552 19.0345 109.726 19.1205C110.412 19.4591 113.007 19.6202 114.181 19.397C115.546 19.1375 115.63 19.1187 115.776 19.0406C115.855 18.9986 116.001 18.9641 116.1 18.9641C117.035 18.9641 118.894 17.9406 119.979 16.8282C120.913 15.8708 120.949 15.7109 120.353 15.1442C120.229 15.0264 120.074 14.8176 120.009 14.6801C119.854 14.3505 117.893 12.3896 117.212 11.8834C116.532 11.3774 115.345 10.5743 115.009 10.3929C114.867 10.3161 114.559 10.1411 114.323 10.0039C114.088 9.86659 113.719 9.67196 113.503 9.57135C113.287 9.47068 113.046 9.35779 112.968 9.32052C112.711 9.19821 111.622 8.81779 111.149 8.68477C110.894 8.61309 110.605 8.52191 110.507 8.48214C110.409 8.44237 110.152 8.36197 109.936 8.30342C108.914 8.02639 108.672 7.95892 108.469 7.89473C108.348 7.85674 108.161 7.82568 108.054 7.82568C107.946 7.82568 107.788 7.7872 107.702 7.74022C107.307 7.5233 105.49 7.41984 104.764 7.57278Z" fill="#0C1218"/>
</svg>
