<svg width="1215" height="206" viewBox="0 0 1215 206" fill="none" xmlns="http://www.w3.org/2000/svg">
<path d="M88.3231 0.999994H45.5531C20.4631 0.999994 0.053076 21.54 0.053076 46.5C0.053076 71.59 20.4631 92 45.5531 92H88.3231C113.413 92 133.823 71.59 133.823 46.5C133.823 21.54 113.413 0.999994 88.3231 0.999994ZM45.5531 86.67C23.3231 86.67 5.38308 68.73 5.38308 46.5C5.38308 24.4 23.3231 6.45999 45.5531 6.45999C67.6531 6.45999 85.5931 24.4 85.5931 46.5C85.5931 68.73 67.6531 86.67 45.5531 86.67ZM262.421 88.23L219.521 2.56C219.131 1.64999 218.221 0.999994 217.181 0.999994H174.281C173.371 0.999994 172.59 1.51999 172.07 2.29999C172.07 2.43 172.07 2.43 172.07 2.43C171.941 2.43 171.941 2.56 171.941 2.56L129.17 88.23C128.65 89.01 128.78 90.05 129.3 90.83C129.69 91.61 130.6 92 131.51 92H259.951C260.861 92 261.771 91.61 262.291 90.83C262.81 90.05 262.81 89.01 262.421 88.23ZM135.8 86.67L174.281 9.71L212.891 86.67H135.8ZM388.808 86.67H307.558L326.278 49.23H367.488C368.918 49.23 370.088 48.06 370.088 46.5C370.088 45.07 368.918 43.9 367.488 43.9H329.008L347.728 6.45999H367.488C368.918 6.45999 370.088 5.15999 370.088 3.73C370.088 2.29999 368.918 0.999994 367.488 0.999994H303.138C302.228 0.999994 301.318 1.64999 300.798 2.56L258.028 88.23C257.508 89.01 257.638 90.05 258.158 90.83C258.548 91.61 259.458 92 260.368 92H388.808C390.368 92 391.538 90.83 391.538 89.4C391.538 87.97 390.368 86.67 388.808 86.67ZM499.208 46.5L520.008 4.9C520.398 4.11999 520.398 3.08 519.878 2.29999C519.358 1.51999 518.448 1.12999 517.538 1.12999H474.768H474.638C474.248 1.12999 473.858 1.26 473.598 1.39C473.468 1.51999 473.338 1.51999 473.208 1.51999C472.948 1.78 472.558 2.16999 472.428 2.56L451.758 43.9H434.598V3.73C434.598 2.29999 433.428 1.12999 431.998 1.12999C430.438 1.12999 429.268 2.29999 429.268 3.73V43.9H412.238L391.568 2.56C390.788 1.26 389.228 0.739997 387.928 1.39C386.628 2.04 386.108 3.6 386.758 4.9L407.558 46.63L386.758 88.23C386.108 89.53 386.628 91.09 387.928 91.74C389.228 92.39 390.788 91.87 391.568 90.57L412.238 49.23H429.268V89.4C429.268 90.83 430.438 92 431.998 92C433.428 92 434.598 90.83 434.598 89.4V49.23H451.758L472.428 90.57C472.558 91.09 472.948 91.35 473.338 91.61C473.728 91.87 474.248 92 474.638 92L474.768 92.13H517.538C518.578 92.13 519.358 91.61 519.878 90.83C520.398 90.05 520.398 89.01 520.008 88.23L499.208 46.5ZM648.866 88.23L605.966 2.56C605.576 1.64999 604.666 0.999994 603.626 0.999994H560.726C559.816 0.999994 559.036 1.51999 558.516 2.29999C558.516 2.43 558.516 2.43 558.516 2.43C558.386 2.43 558.386 2.56 558.386 2.56L515.616 88.23C515.096 89.01 515.226 90.05 515.746 90.83C516.136 91.61 517.046 92 517.956 92H646.396C647.306 92 648.216 91.61 648.736 90.83C649.256 90.05 649.256 89.01 648.866 88.23ZM522.246 86.67L560.726 9.71L599.336 86.67H522.246ZM777.723 88.23L734.823 2.56C734.433 1.64999 733.523 0.999994 732.483 0.999994H689.713C688.673 0.999994 687.893 1.51999 687.373 2.29999C687.373 2.43 687.373 2.43 687.373 2.43C687.373 2.56 687.243 2.56 687.243 2.56L665.923 45.33C665.793 45.33 665.793 45.33 665.793 45.46L644.473 88.23C643.823 89.53 644.343 91.09 645.643 91.74C646.943 92.39 648.503 91.87 649.283 90.57L669.953 49.23H709.473L730.143 90.57C730.273 91.09 730.663 91.35 731.053 91.61C731.443 91.87 731.963 92 732.353 92H732.483H775.253C776.293 92 777.073 91.61 777.593 90.83C778.113 90.05 778.113 89.01 777.723 88.23ZM672.553 43.9L689.713 9.71L706.743 43.9H672.553ZM956.092 88.23L913.192 2.56C912.802 1.64999 911.892 0.999994 910.852 0.999994H867.952C867.042 0.999994 866.262 1.51999 865.742 2.29999C865.742 2.43 865.742 2.43 865.742 2.43C865.612 2.43 865.612 2.56 865.612 2.56L822.842 88.23C822.322 89.01 822.452 90.05 822.972 90.83C823.362 91.61 824.272 92 825.182 92H953.622C954.532 92 955.442 91.61 955.962 90.83C956.482 90.05 956.482 89.01 956.092 88.23ZM829.472 86.67L867.952 9.71L906.562 86.67H829.472ZM1084.95 88.23L1042.05 2.56C1041.66 1.64999 1040.75 0.999994 1039.71 0.999994H996.94C995.9 0.999994 995.12 1.51999 994.6 2.29999C994.6 2.43 994.6 2.43 994.6 2.43L994.47 2.56L951.7 88.23C951.05 89.53 951.57 91.09 952.87 91.74C954.17 92.39 955.73 91.87 956.51 90.57L996.94 9.71L1037.37 90.57C1037.5 91.09 1037.89 91.35 1038.28 91.61C1038.67 91.87 1039.06 92 1039.58 92H1039.71H1082.48C1083.39 92 1084.3 91.61 1084.82 90.83C1085.34 90.05 1085.34 89.01 1084.95 88.23ZM1211.34 0.999994H1104.35C1091.09 0.999994 1080.3 11.92 1080.3 25.18C1080.3 37.01 1088.88 46.89 1100.19 48.84L1080.56 88.23C1079.91 89.53 1080.43 91.09 1081.73 91.74C1082.12 92 1082.51 92.13 1082.9 92.13C1083.94 92.13 1084.85 91.48 1085.37 90.57L1106.04 49.23H1165.84V89.4C1165.84 90.83 1167.14 92.13 1168.57 92.13H1211.34C1212.9 92.13 1214.07 90.83 1214.07 89.4V3.73C1214.07 2.29999 1212.9 0.999994 1211.34 0.999994ZM1165.84 43.9C1165.84 43.9 1104.35 43.9 1104.22 43.9C1093.95 43.9 1085.63 35.45 1085.63 25.18C1085.63 14.78 1093.95 6.45999 1104.35 6.45999H1165.84V43.9ZM271.581 159.5L292.381 117.9C292.771 117.12 292.771 116.08 292.251 115.3C291.731 114.52 290.821 114.13 289.911 114.13H247.141H247.011C246.621 114.13 246.231 114.26 245.971 114.39C245.841 114.52 245.711 114.52 245.581 114.52C245.321 114.78 244.931 115.17 244.801 115.56L224.001 156.9H164.201V116.73C164.201 115.3 162.901 114.13 161.471 114.13C160.041 114.13 158.871 115.3 158.871 116.73V202.4C158.871 203.83 160.041 205.13 161.471 205.13C162.901 205.13 164.201 203.83 164.201 202.4V162.23H224.001L244.801 203.57C244.931 204.09 245.321 204.48 245.711 204.61C246.101 204.87 246.491 205 247.011 205L247.141 205.13H289.911C290.821 205.13 291.731 204.61 292.251 203.83C292.771 203.05 292.771 202.01 292.381 201.23L271.581 159.5ZM421.239 201.23L378.339 115.56C377.949 114.65 377.039 114 375.999 114H333.229C332.189 114 331.409 114.52 330.889 115.3C330.889 115.43 330.889 115.43 330.889 115.43C330.889 115.56 330.759 115.56 330.759 115.56L309.439 158.33C309.309 158.33 309.309 158.33 309.309 158.46L287.989 201.23C287.339 202.53 287.859 204.09 289.159 204.74C290.459 205.39 292.019 204.87 292.799 203.57L313.469 162.23H352.989L373.659 203.57C373.789 204.09 374.179 204.35 374.569 204.61C374.959 204.87 375.479 205 375.869 205H375.999H418.769C419.809 205 420.589 204.61 421.109 203.83C421.629 203.05 421.629 202.01 421.239 201.23ZM316.069 156.9L333.229 122.71L350.259 156.9H316.069ZM529.296 159.5L550.096 117.9C550.486 117.12 550.486 116.08 549.966 115.3C549.446 114.52 548.536 114.13 547.626 114.13H504.856H504.726C504.336 114.13 503.946 114.26 503.686 114.39C503.556 114.52 503.426 114.52 503.296 114.52C503.036 114.78 502.646 115.17 502.516 115.56L481.846 156.9H464.686V116.73C464.686 115.3 463.516 114.13 462.086 114.13C460.526 114.13 459.356 115.3 459.356 116.73V156.9H442.326L421.656 115.56C420.876 114.26 419.316 113.74 418.016 114.39C416.716 115.04 416.196 116.6 416.846 117.9L437.646 159.63L416.846 201.23C416.196 202.53 416.716 204.09 418.016 204.74C419.316 205.39 420.876 204.87 421.656 203.57L442.326 162.23H459.356V202.4C459.356 203.83 460.526 205 462.086 205C463.516 205 464.686 203.83 464.686 202.4V162.23H481.846L502.516 203.57C502.646 204.09 503.036 204.35 503.426 204.61C503.816 204.87 504.336 205 504.726 205L504.856 205.13H547.626C548.666 205.13 549.446 204.61 549.966 203.83C550.486 203.05 550.486 202.01 550.096 201.23L529.296 159.5ZM678.954 201.23L636.054 115.56C635.664 114.65 634.754 114 633.714 114H590.814C589.904 114 589.124 114.52 588.604 115.3C588.604 115.43 588.604 115.43 588.604 115.43C588.474 115.43 588.474 115.56 588.474 115.56L545.704 201.23C545.184 202.01 545.314 203.05 545.834 203.83C546.224 204.61 547.134 205 548.044 205H676.484C677.394 205 678.304 204.61 678.824 203.83C679.344 203.05 679.344 202.01 678.954 201.23ZM552.334 199.67L590.814 122.71L629.424 199.67H552.334ZM762.571 114H719.801C694.711 114 674.301 134.54 674.301 159.5C674.301 184.59 694.711 205 719.801 205H762.571C787.661 205 808.071 184.59 808.071 159.5C808.071 134.54 787.661 114 762.571 114ZM719.801 199.67C697.571 199.67 679.631 181.73 679.631 159.5C679.631 137.4 697.571 119.46 719.801 119.46C741.901 119.46 759.841 137.4 759.841 159.5C759.841 181.73 741.901 199.67 719.801 199.67ZM934.199 114H805.759C804.849 114 803.939 114.52 803.549 115.3C803.029 116.08 802.899 117.12 803.419 117.9L846.189 203.57C846.709 204.48 847.619 205 848.529 205H891.429C891.819 205 892.209 205 892.599 204.74C892.729 204.74 892.729 204.61 892.859 204.61C893.119 204.35 893.379 204.22 893.509 203.96C893.639 203.83 893.639 203.83 893.639 203.83C893.769 203.7 893.769 203.7 893.769 203.57C893.899 203.31 894.029 203.05 894.029 202.79C894.029 202.66 894.029 202.53 894.029 202.4C894.029 202.01 894.029 201.62 893.769 201.23L852.949 119.46H934.199C935.759 119.46 936.929 118.16 936.929 116.73C936.929 115.3 935.759 114 934.199 114ZM1009.75 114H966.979C941.889 114 921.479 134.54 921.479 159.5C921.479 184.59 941.889 205 966.979 205H1009.75C1034.84 205 1055.25 184.59 1055.25 159.5C1055.25 134.54 1034.84 114 1009.75 114ZM966.979 199.67C944.749 199.67 926.809 181.73 926.809 159.5C926.809 137.4 944.749 119.46 966.979 119.46C989.079 119.46 1007.02 137.4 1007.02 159.5C1007.02 181.73 989.079 199.67 966.979 199.67Z" fill="white"/>
</svg>
