<svg width="182" height="53" viewBox="0 0 182 53" fill="none" xmlns="http://www.w3.org/2000/svg">
<g filter="url(#filter0_f_34_402)">
<path d="M76.1178 33.5H73.9578L67.4978 26.26V33.5H65.6978V19.22H67.4978V26.14L73.7978 19.22H75.8378L69.6378 26.16L76.1178 33.5ZM87.0211 33.5L85.3011 29.08H79.6411L77.9411 33.5H76.1211L81.7011 19.16H83.3211L88.8811 33.5H87.0211ZM83.1611 23.16C83.1211 23.0533 83.0544 22.86 82.9611 22.58C82.8678 22.3 82.7744 22.0133 82.6811 21.72C82.6011 21.4133 82.5344 21.18 82.4811 21.02C82.4144 21.2867 82.3411 21.56 82.2611 21.84C82.1944 22.1067 82.1211 22.3533 82.0411 22.58C81.9744 22.8067 81.9144 23 81.8611 23.16L80.2411 27.48H84.7611L83.1611 23.16ZM93.9483 33.5H92.1483V20.8H87.6883V19.22H98.3883V20.8H93.9483V33.5ZM108.095 33.5L106.375 29.08H100.715L99.0153 33.5H97.1953L102.775 19.16H104.395L109.955 33.5H108.095ZM104.235 23.16C104.195 23.0533 104.129 22.86 104.035 22.58C103.942 22.3 103.849 22.0133 103.755 21.72C103.675 21.4133 103.609 21.18 103.555 21.02C103.489 21.2867 103.415 21.56 103.335 21.84C103.269 22.1067 103.195 22.3533 103.115 22.58C103.049 22.8067 102.989 23 102.935 23.16L101.315 27.48H105.835L104.235 23.16ZM122.189 33.5H120.389V20.8H115.869C115.775 21.5333 115.675 22.3067 115.569 23.12C115.462 23.92 115.349 24.7133 115.229 25.5C115.122 26.2867 115.015 27.0267 114.909 27.72C114.802 28.4133 114.695 29.02 114.589 29.54C114.415 30.4333 114.202 31.1933 113.949 31.82C113.695 32.4467 113.355 32.92 112.929 33.24C112.515 33.56 111.969 33.72 111.289 33.72C111.062 33.72 110.829 33.6933 110.589 33.64C110.362 33.6 110.162 33.5467 109.989 33.48V31.98C110.135 32.0467 110.302 32.1067 110.489 32.16C110.675 32.2 110.875 32.22 111.089 32.22C111.489 32.22 111.802 32.06 112.029 31.74C112.269 31.4067 112.455 31 112.589 30.52C112.722 30.0267 112.835 29.54 112.929 29.06C113.009 28.6733 113.102 28.16 113.209 27.52C113.315 26.8667 113.429 26.1067 113.549 25.24C113.682 24.3733 113.815 23.4333 113.949 22.42C114.095 21.3933 114.235 20.3267 114.369 19.22H122.189V33.5ZM138.529 26.34C138.529 27.4467 138.389 28.4533 138.109 29.36C137.829 30.2533 137.409 31.0267 136.849 31.68C136.302 32.3333 135.616 32.8333 134.789 33.18C133.976 33.5267 133.029 33.7 131.949 33.7C130.829 33.7 129.856 33.5267 129.029 33.18C128.202 32.82 127.516 32.32 126.969 31.68C126.422 31.0267 126.016 30.2467 125.749 29.34C125.482 28.4333 125.349 27.4267 125.349 26.32C125.349 24.8533 125.589 23.5733 126.069 22.48C126.549 21.3867 127.276 20.5333 128.249 19.92C129.236 19.3067 130.476 19 131.969 19C133.396 19 134.596 19.3067 135.569 19.92C136.542 20.52 137.276 21.3733 137.769 22.48C138.276 23.5733 138.529 24.86 138.529 26.34ZM127.249 26.34C127.249 27.54 127.416 28.5733 127.749 29.44C128.082 30.3067 128.596 30.9733 129.289 31.44C129.996 31.9067 130.882 32.14 131.949 32.14C133.029 32.14 133.909 31.9067 134.589 31.44C135.282 30.9733 135.796 30.3067 136.129 29.44C136.462 28.5733 136.629 27.54 136.629 26.34C136.629 24.54 136.256 23.1333 135.509 22.12C134.762 21.0933 133.582 20.58 131.969 20.58C130.889 20.58 129.996 20.8133 129.289 21.28C128.596 21.7333 128.082 22.3933 127.749 23.26C127.416 24.1133 127.249 25.14 127.249 26.34ZM149.754 19.22V20.82H143.494V33.5H141.694V19.22H149.754Z" fill="#D1C12B"/>
<path fill-rule="evenodd" clip-rule="evenodd" d="M15.6854 19.097C13.6643 19.5226 13.4644 20.7852 15.0672 23.0011C15.2503 23.2543 15.4429 23.4985 15.4952 23.5439C15.641 23.6703 16.2886 24.1469 16.9219 24.5938C17.4929 24.9968 19.4376 26.0004 19.6583 26.006C19.7227 26.0077 19.9894 26.1144 20.251 26.2432C20.5125 26.372 20.7843 26.4778 20.8549 26.4782C20.9254 26.4787 21.118 26.5382 21.2829 26.6106C21.4477 26.6828 21.8736 26.8331 22.2293 26.9446C23.9273 27.4766 23.6281 28.4884 21.8863 28.1049C21.667 28.0566 21.1022 27.9459 20.6314 27.8589C20.1606 27.7719 19.6898 27.6627 19.5852 27.6162C18.4039 27.0904 16.0183 26.4931 16.0183 26.7231C16.0183 27.0663 17.2338 28.8653 17.7904 29.3459C18.4427 29.9091 20.1748 30.9535 20.4565 30.9535C20.5238 30.9535 20.7618 31.0343 20.9855 31.1332C21.6579 31.4301 22.3232 31.6209 22.6843 31.6204C23.8734 31.6188 24.5018 32.0014 24.162 32.5204C23.9706 32.8129 21.813 32.8852 20.9103 32.6294C19.783 32.3099 19.1828 32.3554 19.4277 32.7418C19.5246 32.8944 21.6408 34.2831 21.7787 34.2846C21.8343 34.2851 22.0697 34.3794 22.3018 34.494C23.2157 34.9455 26.6754 35.1602 28.2407 34.8627C30.0613 34.5167 30.1739 34.4915 30.3682 34.3875C30.4729 34.3314 30.6675 34.2855 30.8005 34.2855C32.0473 34.2855 34.5256 32.9208 35.9724 31.4376C37.2176 30.1611 37.2649 29.9478 36.4701 29.1923C36.3048 29.0352 36.0989 28.7568 36.0123 28.5735C35.8049 28.134 33.1902 25.5195 32.2831 24.8445C31.3766 24.1699 29.7938 23.0991 29.3459 22.8572C29.1565 22.7548 28.7448 22.5215 28.4309 22.3385C28.117 22.1555 27.6248 21.8959 27.3371 21.7618C27.0494 21.6276 26.7283 21.4771 26.6237 21.4274C26.2808 21.2643 24.8295 20.7571 24.1983 20.5797C23.8582 20.4841 23.473 20.3625 23.3422 20.3095C23.2114 20.2565 22.869 20.1493 22.5813 20.0712C21.219 19.7019 20.896 19.6119 20.6247 19.5263C20.464 19.4757 20.2151 19.4342 20.0715 19.4342C19.928 19.4342 19.717 19.3829 19.6027 19.3203C19.0757 19.0311 16.654 18.8931 15.6854 19.097Z" fill="#D1C12B"/>
</g>
<defs>
<filter id="filter0_f_34_402" x="0" y="-14" width="182" height="81" filterUnits="userSpaceOnUse" color-interpolation-filters="sRGB">
<feFlood flood-opacity="0" result="BackgroundImageFix"/>
<feBlend mode="normal" in="SourceGraphic" in2="BackgroundImageFix" result="shape"/>
<feGaussianBlur stdDeviation="7" result="effect1_foregroundBlur_34_402"/>
</filter>
</defs>
</svg>
