<svg width="196" height="45" viewBox="0 0 196 45" fill="none" xmlns="http://www.w3.org/2000/svg">
<path id="&#208;&#155;&#208;&#190;&#208;&#179;&#208;&#190;" fill-rule="evenodd" clip-rule="evenodd" d="M3.28808 0.19189C-0.654919 1.03334 -1.04497 3.53001 2.08193 7.91156C2.43913 8.4121 2.81489 8.89513 2.91695 8.98473C3.20142 9.23472 4.46491 10.1771 5.70038 11.0609C6.8143 11.8577 10.6083 13.8422 11.0388 13.8533C11.1644 13.8565 11.6847 14.0675 12.195 14.3222C12.7053 14.5769 13.2355 14.786 13.3732 14.787C13.5108 14.7879 13.8866 14.9056 14.2082 15.0486C14.5298 15.1915 15.3607 15.4887 16.0545 15.7092C19.3672 16.7611 18.7836 18.7617 15.3854 18.0035C14.9575 17.9078 13.8558 17.6891 12.9373 17.517C12.0187 17.345 11.1002 17.1291 10.8961 17.037C8.59161 15.9974 3.93754 14.8163 3.93754 15.2711C3.93754 15.9497 6.30883 19.507 7.39474 20.4572C8.66732 21.5709 12.0464 23.6361 12.596 23.6361C12.7272 23.6361 13.1917 23.7959 13.6281 23.9913C14.9399 24.5784 16.2379 24.9557 16.9422 24.9547C19.2621 24.9515 20.488 25.7081 19.8251 26.7344C19.4516 27.3127 15.2423 27.4557 13.4813 26.9499C11.2821 26.3182 10.1112 26.4082 10.589 27.172C10.7779 27.4738 14.9064 30.2199 15.1755 30.2227C15.2839 30.2237 15.7431 30.4102 16.1961 30.6369C17.979 31.5295 24.7284 31.9542 27.7822 31.3659C31.334 30.6817 31.5537 30.632 31.9328 30.4262C32.1369 30.3153 32.5166 30.2246 32.7762 30.2246C35.2085 30.2246 40.0435 27.5261 42.8661 24.5933C45.2953 22.0692 45.3875 21.6475 43.837 20.1536C43.5145 19.843 43.1127 19.2924 42.9439 18.93C42.5392 18.0609 37.4382 12.8912 35.6685 11.5565C33.9 10.2226 30.8122 8.10526 29.9384 7.62694C29.569 7.42457 28.7657 6.96319 28.1533 6.60139C27.541 6.23939 26.5807 5.72624 26.0194 5.46101C25.458 5.19558 24.8318 4.89797 24.6276 4.79971C23.9587 4.47725 21.1274 3.47429 19.8958 3.12359C19.2324 2.93459 18.4809 2.69421 18.2258 2.58936C17.9706 2.48451 17.3026 2.27254 16.7413 2.11818C14.0835 1.3878 13.4535 1.20991 12.9241 1.04068C12.6107 0.940534 12.1251 0.858648 11.8449 0.858648C11.5649 0.858648 11.1533 0.757185 10.9302 0.633321C9.90223 0.0614375 5.17765 -0.211327 3.28808 0.19189ZM50.5606 22.0853C49.6089 22.9872 48.2743 26.2273 47.5345 29.4319C47.1311 31.1792 47.0416 31.3799 46.62 31.4823C43.8082 32.165 42.9233 34.8292 45.1186 36.0018C45.5705 36.2431 45.9687 36.4694 46.0034 36.5046C46.0381 36.54 45.9325 37.1954 45.7685 37.9616C44.7061 42.9265 45.0079 44.7193 46.9058 44.7193C48.0316 44.7193 48.5558 44.0385 48.8167 42.2373C49.4482 37.8803 49.9772 35.8749 50.401 36.2318C50.5599 36.3657 50.6938 36.3666 50.8239 36.2346C50.9286 36.1285 51.5823 36.0669 52.2774 36.098L53.5409 36.1543L54.0347 38.1308C55.2998 43.1942 56.1395 44.9076 57.3566 44.9076C58.3111 44.9076 58.6262 43.9664 58.3082 42.0653C58.1972 41.4027 58.0241 40.3521 57.9231 39.7309C57.8222 39.1097 57.6049 38.0269 57.4401 37.3246C57.1493 36.0856 57.1516 36.0353 57.5151 35.6304C58.7587 34.2445 58.4763 32.5812 56.8727 31.8476C56.0187 31.457 55.9127 31.0777 55.8732 28.2688C55.8613 27.4292 55.8116 26.9115 55.7624 27.1186C55.4659 28.3691 55.2531 27.8303 54.9955 25.178C54.8239 23.4104 54.4001 22.5066 53.7426 22.5066C53.6151 22.5066 53.2627 22.2949 52.9595 22.036C52.1978 21.3858 51.2789 21.4046 50.5606 22.0853ZM130.819 21.8937C129.861 22.4968 128.989 24.4484 127.82 28.6087L127.031 31.4166L126.203 31.6615C123.635 32.4212 123.192 36.2484 125.672 36.2484C126.137 36.2484 126.136 36.6204 125.663 38.6955C125.463 39.5756 125.244 41.0311 125.177 41.9299L125.055 43.5643L125.625 44.1418C127.079 45.6167 128.442 44.6841 128.91 41.8957C129.755 36.8568 130.003 35.9158 130.398 36.2484C130.567 36.3913 130.68 36.3941 130.763 36.2576C130.91 36.0168 133.396 35.992 133.541 36.2299C133.598 36.3231 133.932 37.5584 134.284 38.9747C135.494 43.8476 137.077 46.0881 138.181 44.4891C138.635 43.832 138.296 40.7723 137.347 36.9473C137.138 36.1057 137.15 36.0522 137.707 35.3665C138.722 34.118 138.287 32.3738 136.816 31.7874C136.062 31.487 135.872 30.8262 135.872 28.5027C135.872 27.9836 135.793 27.7774 135.593 27.7774C135.44 27.7774 135.315 27.6961 135.315 27.5965C135.315 25.0694 134.715 22.8251 133.975 22.5879C133.742 22.5134 133.294 22.2529 132.978 22.0089C132.305 21.4894 131.528 21.4479 130.819 21.8937ZM88.6801 21.8764C88.6105 21.947 88.5536 22.6894 88.5534 23.5263C88.553 27.6677 87.8451 32.0496 86.5497 35.928C85.9047 37.8596 85.7722 37.7022 85.2341 34.366C85.0088 32.9683 84.7071 31.2741 84.564 30.6011C83.2246 24.3072 82.9214 23.4768 81.6594 22.6478C79.4965 21.2269 78.8032 23.2376 79.8216 27.977C80.7173 32.1456 81.472 36.8809 81.6084 39.1874C81.708 40.8733 81.8049 41.3537 82.1539 41.8957C82.3875 42.2581 82.6382 42.7663 82.7112 43.0251C83.9841 47.5407 90.7332 39.9688 92.527 32.0129C93.9341 25.7717 93.3789 22.2757 90.9404 22.0223L89.725 21.896L89.5962 24.8235C89.4123 29.0087 88.9165 31.8333 87.7727 35.213C87.1758 36.9771 86.3287 38.5845 86.1119 38.3646C85.9873 38.2381 86.0464 37.935 86.2914 37.4473C88.137 33.7722 90.198 20.3364 88.6801 21.8764ZM153.778 22.2446C152.043 22.3841 149.025 22.5213 147.07 22.5495C145.116 22.5776 143.613 22.6631 143.73 22.7391C143.848 22.8152 144.377 22.8786 144.907 22.8803C145.437 22.8818 145.93 22.9816 146.004 23.102C146.104 23.2668 145.446 23.2907 143.346 23.1984C138.965 23.006 138.362 23.9702 141.026 26.9064C141.652 27.5965 142.576 27.8356 145.057 27.9493L147.469 28.0598L147.444 28.7187C147.15 36.3519 147.154 41.9311 147.454 42.7287C148.236 44.8067 150.25 44.8289 150.632 42.7639C150.797 41.8748 151.084 41.8908 151.101 42.7898C151.111 43.3561 151.145 43.4212 151.273 43.1193C151.361 42.9122 151.439 39.3331 151.446 35.166C151.453 30.9988 151.512 27.5892 151.577 27.5892C152.063 27.5892 156.485 26.7756 156.904 26.6092C157.233 26.4786 157.537 26.1452 157.713 25.7237C157.868 25.3521 158.168 24.6959 158.378 24.2658C158.747 23.5135 158.749 23.4642 158.436 22.9799C158.257 22.703 158.156 22.356 158.212 22.209C158.333 21.889 158.183 21.8903 153.778 22.2446ZM61.5544 22.5793C61.248 22.7146 60.883 22.9654 60.7429 23.1367C60.603 23.3078 60.3826 23.4478 60.2532 23.4478C60.1241 23.4478 59.8316 23.6013 59.6034 23.7886L59.1885 24.1295L59.5169 25.671C59.7147 26.6 59.9374 27.2127 60.0769 27.2127C60.3851 27.2127 60.4527 27.4085 61.2797 30.6952C61.6705 32.2482 62.2471 34.5303 62.561 35.7663C63.2307 38.4041 63.1962 38.1308 62.8598 38.1308C62.479 38.1308 62.3302 37.7491 61.8331 35.4954C61.5933 34.4083 61.3311 33.4415 61.2504 33.3468C61.0678 33.1324 61.2233 34.2737 61.5893 35.8318C61.9248 37.2604 61.8388 37.6307 61.2269 37.3946C58.2239 36.2363 58.0376 40.0362 61.0279 41.4537C62.5193 42.1607 62.8251 42.383 63.0467 42.921C63.6137 44.2977 65.2235 44.7464 66.515 43.8879C66.9011 43.6311 67.0414 43.6319 67.8685 43.895C77.5668 46.9794 81.2454 40.0562 74.3409 31.7138C68.5972 24.774 64.0069 21.4948 61.5544 22.5793ZM100.177 22.7824C99.3651 23.0759 98.4854 23.8539 98.0846 24.6325C97.9357 24.9216 97.627 25.2303 97.3985 25.3184C94.8758 26.2914 93.7613 36.8474 95.7324 41.0998C98.0454 46.0897 104.122 45.2577 106.009 39.6923C107.42 35.5323 106.141 24.7846 104.147 24.0534C103.991 23.996 103.562 23.6244 103.195 23.2278C102.442 22.4146 101.556 22.2836 100.177 22.7824ZM109.381 22.7013C108.624 23.01 108.527 23.5683 108.755 26.3056C109.301 32.8882 109.547 35.4837 109.713 36.4242C109.812 36.9867 109.893 38.8834 109.893 40.6388C109.893 44.6627 109.949 44.7269 112.862 44.058C115.051 43.5556 118.486 43.2017 120.825 43.2379C123.723 43.2827 124.243 42.9101 123.543 41.2903C123.396 40.9503 123.233 40.4594 123.18 40.1996C122.951 39.0788 119.635 38.6812 116.017 39.3407C114.202 39.6712 114.358 40.1 113.951 33.6777C113.754 30.5879 113.48 27.2974 113.341 26.3656L113.088 24.6714L113.068 25.9532C113.046 27.3202 112.772 27.5218 112.58 26.312C112.452 25.5108 112.128 23.8804 112.003 23.4158C111.852 22.8541 110.147 22.3894 109.381 22.7013ZM162.047 22.8315C159.083 24.0171 158.573 38.7951 161.464 39.726C161.679 39.7951 162.181 40.3391 162.579 40.9347C166.381 46.6131 172.614 44.7167 174.463 37.3193C175.64 32.6095 175.277 24.2535 173.849 23.1835L173.323 22.789L172.915 23.3067C172.663 23.6252 172.326 23.8243 172.038 23.8243C170.842 23.8243 170.758 24.1513 170.748 28.8672C170.727 38.4397 169.736 40.9684 166.778 39.0024C166.173 38.6003 165.089 34.7835 164.819 32.107L164.657 30.507L164.717 32.648C164.75 33.8392 164.708 34.6766 164.622 34.5354C163.936 33.4085 163.886 26.8477 164.559 26.2946C166.272 24.8885 164.165 21.9844 162.047 22.8315ZM178.541 23.0299C177.658 23.4772 177.427 24.2417 177.484 26.5371C177.518 27.8964 177.467 28.4244 177.298 28.4824C177.125 28.5419 177.062 28.121 177.048 26.8048C177.027 24.8418 176.845 23.871 176.605 24.445C176.375 24.9946 176.653 38.9286 176.939 41.1785C177.254 43.6548 177.495 44.0838 178.673 44.263C180.256 44.5038 180.286 44.3905 180.175 38.6404C180.069 33.1988 180.167 32.8544 180.965 35.8785C183.173 44.2401 183.154 44.1926 184.165 44.1183L184.953 44.0605L185.345 42.7428C186.016 40.4916 186.605 37.6945 186.575 36.9072C186.546 36.1624 187.507 31.8495 188.147 29.8481C188.466 28.8521 188.85 28.595 188.85 29.3775C188.85 29.5846 188.932 29.8811 189.033 30.0364C189.134 30.1917 189.394 31.1658 189.61 32.2012C189.826 33.2365 190.135 34.7189 190.297 35.4954C190.749 37.674 191.169 40.7941 191.169 41.9793C191.169 43.3497 191.354 43.6759 192.448 44.2384C194.636 45.3633 195.787 43.0255 194.992 39.072C194.097 34.6238 193.715 32.6345 193.295 30.2368C192.641 26.4995 192.029 24.7537 190.938 23.513C189.992 22.4375 187.201 23.0868 187.002 24.4288C186.122 30.3336 183.963 38.6871 183.663 37.3442C182.868 33.7879 181.521 26.1621 181.52 25.2173C181.52 24.6978 180.714 23.2711 180.28 23.022C179.782 22.7367 179.114 22.7397 178.541 23.0299ZM109.973 23.6095C109.899 23.8831 109.855 26.0127 109.876 28.3422C109.932 34.7816 109.588 33.4481 109.02 25.0289C108.922 23.593 108.941 23.4862 109.342 23.2014C109.889 22.8129 110.145 22.9786 109.973 23.6095ZM180.746 25.4715C180.838 25.6527 181.015 26.3939 181.139 27.1186C181.263 27.8433 181.524 29.2184 181.72 30.1743C182.246 32.7373 181.892 33.1955 181.282 30.7425C180.093 25.9588 179.867 23.7419 180.746 25.4715ZM101.49 25.9421C102.35 27.0787 103.068 31.0662 103.092 34.8366C103.126 40.3033 101.708 42.868 99.3373 41.6244C98.0434 40.9456 97.549 39.5622 98.6787 39.7813C99.2178 39.8858 99.2169 39.8962 98.8548 37.6602C98.3558 34.5796 98.5956 30.6344 99.4152 28.4363C100.264 26.1606 100.992 25.2847 101.49 25.9421ZM142.887 26.7274C144.231 27.0199 144.446 27.151 143.826 27.3004C143.262 27.4365 141.583 27.0028 141.484 26.695C141.391 26.4085 141.425 26.4095 142.887 26.7274ZM52.3427 28.4834C52.8686 31.951 52.8777 31.9105 51.5747 31.916C50.6216 31.9197 50.589 31.7174 51.1743 29.4426C51.8898 26.6627 52.0469 26.5335 52.3427 28.4834ZM132.546 29.802C132.769 31.8269 132.73 31.9111 131.568 31.916C130.636 31.9199 130.629 31.8766 131.168 29.6454C131.924 26.5175 132.189 26.5476 132.546 29.802ZM100.073 28.0754C100.082 28.2947 100.126 28.3393 100.185 28.1893C100.239 28.0534 100.232 27.8909 100.17 27.8285C100.109 27.766 100.065 27.877 100.073 28.0754ZM66.9299 29.5435C70.9759 32.4116 76.2395 39.0668 75.4591 40.3272C74.7526 41.4682 70.237 41.3616 67.3448 40.1356C66.5586 39.8024 66.6165 39.9822 65.9223 35.7177C65.6133 33.8212 65.1969 31.4563 64.9969 30.4622C64.5217 28.1025 64.7464 27.9956 66.9299 29.5435ZM60.7193 31.7305C60.7193 31.8685 60.775 31.925 60.8431 31.8561C60.911 31.787 60.911 31.6741 60.8431 31.605C60.775 31.5361 60.7193 31.5926 60.7193 31.7305ZM50.0904 37.7698C49.92 38.4343 49.741 39.2744 49.6924 39.6368C49.4448 41.4844 49.4031 42.2722 49.5528 42.2722C49.6439 42.2722 49.7721 41.7509 49.8377 41.1137C49.9033 40.4765 50.0896 39.2917 50.2516 38.4809C50.6192 36.6403 50.5068 36.1445 50.0904 37.7698ZM130.071 38.0952C129.806 39.3036 129.419 42.9579 129.649 42.0839C129.817 41.4424 130.52 36.78 130.457 36.7165C130.42 36.6787 130.246 37.299 130.071 38.0952ZM116.852 44.4213L114.625 44.6371L118.386 44.6407C120.933 44.6433 122.126 44.5806 122.082 44.4466C121.993 44.1729 119.538 44.161 116.852 44.4213ZM113.419 44.8135C113.419 44.8652 113.461 44.9076 113.512 44.9076C113.563 44.9076 113.604 44.8652 113.604 44.8135C113.604 44.7617 113.563 44.7193 113.512 44.7193C113.461 44.7193 113.419 44.7617 113.419 44.8135Z" fill="white"/>
</svg>
